<svg width="192" height="96" version="1.1" viewBox="0 0 64 32" xmlns="http://www.w3.org/2000/svg">
 <g>
  <g fill="#353b48" aria-label="Expr">
   <path d="m8.9589 1.3421h9.44v1.2h-8.24v8.44h3.92v1.2h-3.92v8.88h7.88v1.2h-9.08z"/>
   <path d="m21.879 9.0221 4.4 5.72 4.4-5.72 0.96 0.72-4.6 6 4.6 6-0.96 0.72-4.4-5.72-4.4 5.72-0.96-0.72 4.6-6-4.6-6z"/>
   <path d="m40.959 9.2621q2.52 0 4.32 2 1.8 2 1.8 4.76t-1.8 4.76-4.32 2q-3.04 0-4.92-2.76v11.36h-1.2v-21.8h1.2v2.44q1.88-2.76 4.92-2.76zm3.48 2.84q-1.44-1.64-3.48-1.64t-3.48 1.64q-1.44 1.6-1.44 3.92t1.44 3.96q1.44 1.6 3.48 1.6t3.48-1.6q1.44-1.64 1.44-3.96t-1.44-3.92z"/>
   <path d="m56.799 9.2621v1.2q-2.04 0-3.48 1.64-1.44 1.6-1.44 3.92v6.24h-1.2v-12.68h1.2v2.44q1.88-2.76 4.92-2.76z"/>
  </g>
  <g transform="scale(.73721 1.3565)" aria-label="_">
   <path d="m10.278 11.545h-7.889v-0.72266h7.889z" fill="#e84118" stroke-width=".73721"/>
  </g>
 </g>
</svg>
